<svg width="86" height="20" viewBox="0 0 86 20" fill="none" xmlns="http://www.w3.org/2000/svg">
<path d="M35.4375 15H28.7451V13.8584L32.0605 10.2422C32.5391 9.70898 32.8786 9.26465 33.0791 8.90918C33.2842 8.54915 33.3867 8.18913 33.3867 7.8291C33.3867 7.35514 33.2523 6.97233 32.9834 6.68066C32.7191 6.389 32.3613 6.24316 31.9102 6.24316C31.3724 6.24316 30.9554 6.40723 30.6592 6.73535C30.363 7.06348 30.2148 7.51237 30.2148 8.08203H28.5537C28.5537 7.47591 28.6904 6.93132 28.9639 6.44824C29.2419 5.96061 29.6361 5.58236 30.1465 5.31348C30.6615 5.0446 31.2539 4.91016 31.9238 4.91016C32.89 4.91016 33.651 5.15397 34.207 5.6416C34.7676 6.12467 35.0479 6.7946 35.0479 7.65137C35.0479 8.14811 34.9066 8.66992 34.624 9.2168C34.346 9.75911 33.888 10.3766 33.25 11.0693L30.8164 13.6738H35.4375V15ZM46.1152 8.92285H43.7158V15H42.0547V8.92285H39.6826V7.60352H46.1152V8.92285ZM46.71 11.2334C46.71 10.5088 46.8535 9.8571 47.1406 9.27832C47.4277 8.69499 47.8311 8.24837 48.3506 7.93848C48.8701 7.62402 49.4671 7.4668 50.1416 7.4668C51.1396 7.4668 51.9486 7.78809 52.5684 8.43066C53.1927 9.07324 53.5299 9.92546 53.5801 10.9873L53.5869 11.377C53.5869 12.1061 53.4456 12.7578 53.1631 13.332C52.8851 13.9062 52.484 14.3506 51.96 14.665C51.4404 14.9795 50.8389 15.1367 50.1553 15.1367C49.1117 15.1367 48.2754 14.7904 47.6465 14.0977C47.0221 13.4004 46.71 12.473 46.71 11.3154V11.2334ZM48.3711 11.377C48.3711 12.138 48.5283 12.735 48.8428 13.168C49.1572 13.5964 49.5947 13.8105 50.1553 13.8105C50.7158 13.8105 51.151 13.5918 51.4609 13.1543C51.7754 12.7168 51.9326 12.0765 51.9326 11.2334C51.9326 10.486 51.7708 9.89355 51.4473 9.45605C51.1283 9.01855 50.693 8.7998 50.1416 8.7998C49.5993 8.7998 49.1686 9.01628 48.8496 9.44922C48.5306 9.8776 48.3711 10.5202 48.3711 11.377ZM55.1182 15V7.60352H58.1191C59.1309 7.60352 59.901 7.78125 60.4297 8.13672C60.9583 8.48763 61.2227 8.99349 61.2227 9.6543C61.2227 9.99609 61.1156 10.3037 60.9014 10.5771C60.6917 10.846 60.3796 11.0534 59.9648 11.1992C60.4479 11.2995 60.8307 11.5023 61.1133 11.8076C61.3958 12.113 61.5371 12.473 61.5371 12.8877C61.5371 13.5758 61.2819 14.0999 60.7715 14.46C60.2656 14.82 59.5365 15 58.584 15H55.1182ZM56.7793 11.8486V13.6875H58.5977C59.4499 13.6875 59.876 13.3822 59.876 12.7715C59.876 12.1562 59.443 11.8486 58.5771 11.8486H56.7793ZM56.7793 10.6592H58.1465C59.0898 10.6592 59.5615 10.3812 59.5615 9.8252C59.5615 9.24186 59.1149 8.94108 58.2217 8.92285H56.7793V10.6592ZM67.3955 15C67.3226 14.8587 67.2588 14.6286 67.2041 14.3096C66.6755 14.861 66.0283 15.1367 65.2627 15.1367C64.5199 15.1367 63.9137 14.9248 63.4443 14.501C62.9749 14.0771 62.7402 13.5531 62.7402 12.9287C62.7402 12.1403 63.0319 11.5365 63.6152 11.1172C64.2031 10.6934 65.0417 10.4814 66.1309 10.4814H67.1494V9.99609C67.1494 9.61328 67.0423 9.30794 66.8281 9.08008C66.6139 8.84766 66.2881 8.73145 65.8506 8.73145C65.4723 8.73145 65.1624 8.82715 64.9209 9.01855C64.6794 9.2054 64.5586 9.44466 64.5586 9.73633H62.8975C62.8975 9.33073 63.0319 8.95247 63.3008 8.60156C63.5697 8.24609 63.9342 7.9681 64.3945 7.76758C64.8594 7.56706 65.3766 7.4668 65.9463 7.4668C66.8122 7.4668 67.5026 7.68555 68.0176 8.12305C68.5326 8.55599 68.7969 9.16667 68.8105 9.95508V13.291C68.8105 13.9564 68.904 14.4873 69.0908 14.8838V15H67.3955ZM65.5703 13.8037C65.8984 13.8037 66.2061 13.724 66.4932 13.5645C66.7848 13.4049 67.0036 13.1908 67.1494 12.9219V11.5273H66.2539C65.6387 11.5273 65.1761 11.6344 64.8662 11.8486C64.5563 12.0628 64.4014 12.3659 64.4014 12.7578C64.4014 13.0768 64.5062 13.332 64.7158 13.5234C64.93 13.7103 65.2148 13.8037 65.5703 13.8037ZM77.0273 11.377C77.0273 12.5208 76.7676 13.4346 76.248 14.1182C75.7285 14.7972 75.0312 15.1367 74.1562 15.1367C73.3451 15.1367 72.6956 14.8701 72.208 14.3369V17.8438H70.5469V7.60352H72.0781L72.1465 8.35547C72.6341 7.76302 73.2972 7.4668 74.1357 7.4668C75.0381 7.4668 75.7445 7.80404 76.2549 8.47852C76.7699 9.14844 77.0273 10.0804 77.0273 11.2744V11.377ZM75.373 11.2334C75.373 10.4951 75.2249 9.90951 74.9287 9.47656C74.637 9.04362 74.2178 8.82715 73.6709 8.82715C72.9919 8.82715 72.5042 9.10742 72.208 9.66797V12.9492C72.5088 13.5234 73.001 13.8105 73.6846 13.8105C74.2132 13.8105 74.6257 13.5986 74.9219 13.1748C75.2227 12.7464 75.373 12.0993 75.373 11.2334ZM82.8584 15C82.7855 14.8587 82.7217 14.6286 82.667 14.3096C82.1383 14.861 81.4912 15.1367 80.7256 15.1367C79.9827 15.1367 79.3766 14.9248 78.9072 14.501C78.4378 14.0771 78.2031 13.5531 78.2031 12.9287C78.2031 12.1403 78.4948 11.5365 79.0781 11.1172C79.666 10.6934 80.5046 10.4814 81.5938 10.4814H82.6123V9.99609C82.6123 9.61328 82.5052 9.30794 82.291 9.08008C82.0768 8.84766 81.751 8.73145 81.3135 8.73145C80.9352 8.73145 80.6253 8.82715 80.3838 9.01855C80.1423 9.2054 80.0215 9.44466 80.0215 9.73633H78.3604C78.3604 9.33073 78.4948 8.95247 78.7637 8.60156C79.0326 8.24609 79.3971 7.9681 79.8574 7.76758C80.3223 7.56706 80.8395 7.4668 81.4092 7.4668C82.2751 7.4668 82.9655 7.68555 83.4805 8.12305C83.9954 8.55599 84.2598 9.16667 84.2734 9.95508V13.291C84.2734 13.9564 84.3669 14.4873 84.5537 14.8838V15H82.8584ZM81.0332 13.8037C81.3613 13.8037 81.6689 13.724 81.9561 13.5645C82.2477 13.4049 82.4665 13.1908 82.6123 12.9219V11.5273H81.7168C81.1016 11.5273 80.639 11.6344 80.3291 11.8486C80.0192 12.0628 79.8643 12.3659 79.8643 12.7578C79.8643 13.0768 79.9691 13.332 80.1787 13.5234C80.3929 13.7103 80.6777 13.8037 81.0332 13.8037Z" fill="#323232"/>
<path d="M7.03359 20C8.14664 20 9.04894 19.1046 9.04894 18C9.04894 16.8954 8.14664 16 7.03359 16C5.92054 16 5.01823 16.8954 5.01823 18C5.01823 19.1046 5.92054 20 7.03359 20Z" fill="#343434"/>
<path d="M16.1027 20C17.2157 20 18.118 19.1046 18.118 18C18.118 16.8954 17.2157 16 16.1027 16C14.9896 16 14.0873 16.8954 14.0873 18C14.0873 19.1046 14.9896 20 16.1027 20Z" fill="#343434"/>
<path d="M5.70345 2L5.46161 0H0V2H3.66795L5.17946 15H19.2869L21 2H5.70345ZM17.5034 13H6.97313L5.96545 4H18.6924L17.5034 13Z" fill="#343434"/>
<path d="M5.93506 4.02997L6.97297 13H17.5032L18.6923 4.02997H5.93506Z" fill="#E84D37"/>
</svg>
