<svg width="68" height="20" viewBox="0 0 68 20" fill="none" xmlns="http://www.w3.org/2000/svg">
<path d="M37.8867 15H36.1641V6.44141H31.7822V15H30.0596V5.04688H37.8867V15ZM42.4053 12.6211L43.9092 7.60352H45.6797L42.7402 16.1211C42.2891 17.3652 41.5234 17.9873 40.4434 17.9873C40.2018 17.9873 39.9352 17.9463 39.6436 17.8643V16.5791L39.958 16.5996C40.3773 16.5996 40.6917 16.5221 40.9014 16.3672C41.1156 16.2168 41.2842 15.9616 41.4072 15.6016L41.6465 14.9658L39.0488 7.60352H40.8398L42.4053 12.6211ZM49.583 13.8105C49.9977 13.8105 50.3418 13.6898 50.6152 13.4482C50.8887 13.2067 51.0345 12.9082 51.0527 12.5527H52.6182C52.5999 13.013 52.4564 13.4437 52.1875 13.8447C51.9186 14.2412 51.554 14.5557 51.0938 14.7881C50.6335 15.0205 50.1367 15.1367 49.6035 15.1367C48.569 15.1367 47.7487 14.8018 47.1426 14.1318C46.5365 13.4619 46.2334 12.5368 46.2334 11.3564V11.1855C46.2334 10.0599 46.5342 9.15983 47.1357 8.48535C47.7373 7.80632 48.5576 7.4668 49.5967 7.4668C50.4762 7.4668 51.1917 7.72428 51.7432 8.23926C52.2992 8.74967 52.5908 9.42188 52.6182 10.2559H51.0527C51.0345 9.83203 50.8887 9.4834 50.6152 9.20996C50.3464 8.93652 50.0023 8.7998 49.583 8.7998C49.0452 8.7998 48.6305 8.99577 48.3389 9.3877C48.0472 9.77507 47.8991 10.3652 47.8945 11.1582V11.4248C47.8945 12.2269 48.0381 12.8262 48.3252 13.2227C48.6169 13.6146 49.0361 13.8105 49.583 13.8105ZM59.6934 8.92285H57.2939V15H55.6328V8.92285H53.2607V7.60352H59.6934V8.92285ZM60.2881 11.2334C60.2881 10.5088 60.4316 9.8571 60.7188 9.27832C61.0059 8.69499 61.4092 8.24837 61.9287 7.93848C62.4482 7.62402 63.0452 7.4668 63.7197 7.4668C64.7178 7.4668 65.5267 7.78809 66.1465 8.43066C66.7708 9.07324 67.1081 9.92546 67.1582 10.9873L67.165 11.377C67.165 12.1061 67.0238 12.7578 66.7412 13.332C66.4632 13.9062 66.0622 14.3506 65.5381 14.665C65.0186 14.9795 64.417 15.1367 63.7334 15.1367C62.6898 15.1367 61.8535 14.7904 61.2246 14.0977C60.6003 13.4004 60.2881 12.473 60.2881 11.3154V11.2334ZM61.9492 11.377C61.9492 12.138 62.1064 12.735 62.4209 13.168C62.7354 13.5964 63.1729 13.8105 63.7334 13.8105C64.2939 13.8105 64.7292 13.5918 65.0391 13.1543C65.3535 12.7168 65.5107 12.0765 65.5107 11.2334C65.5107 10.486 65.349 9.89355 65.0254 9.45605C64.7064 9.01855 64.2712 8.7998 63.7197 8.7998C63.1774 8.7998 62.7467 9.01628 62.4277 9.44922C62.1087 9.8776 61.9492 10.5202 61.9492 11.377Z" fill="white"/>
<path d="M5.70345 2L5.46161 0H0V2H3.66795L5.17946 15H19.2869L21 2H5.70345ZM17.5034 13H6.97313L5.96545 4H18.6924L17.5034 13Z" fill="white"/>
<path d="M7.03359 20C8.14664 20 9.04894 19.1046 9.04894 18C9.04894 16.8954 8.14664 16 7.03359 16C5.92054 16 5.01823 16.8954 5.01823 18C5.01823 19.1046 5.92054 20 7.03359 20Z" fill="white"/>
<path d="M16.1027 20C17.2157 20 18.118 19.1046 18.118 18C18.118 16.8954 17.2157 16 16.1027 16C14.9896 16 14.0873 16.8954 14.0873 18C14.0873 19.1046 14.9896 20 16.1027 20Z" fill="white"/>
</svg>
