<svg width="60" height="19" viewBox="0 0 60 19" fill="none" xmlns="http://www.w3.org/2000/svg">
<path d="M6.04 14.88L12.96 9.5L6.04 4.13V7.04H0V11.96H6.04V14.88Z" fill="#323232"/>
<path d="M18 0H5C4.46957 0 3.96086 0.210714 3.58579 0.585786C3.21071 0.960859 3 1.46957 3 2V4H5V2H18V17H5V15H3V17C3 17.5304 3.21071 18.0391 3.58579 18.4142C3.96086 18.7893 4.46957 19 5 19H18C18.5304 19 19.0391 18.7893 19.4142 18.4142C19.7893 18.0391 20 17.5304 20 17V2C20 1.46957 19.7893 0.960859 19.4142 0.585786C19.0391 0.210714 18.5304 0 18 0Z" fill="#323232"/>
<path d="M29.0117 15V5.04688H32.4229C33.5485 5.04688 34.4053 5.27246 34.9932 5.72363C35.5811 6.1748 35.875 6.84701 35.875 7.74023C35.875 8.19596 35.752 8.60612 35.5059 8.9707C35.2598 9.33529 34.8997 9.61784 34.4258 9.81836C34.9635 9.96419 35.3783 10.2399 35.6699 10.6455C35.9661 11.0465 36.1143 11.5296 36.1143 12.0947C36.1143 13.029 35.8135 13.7467 35.2119 14.248C34.6149 14.7493 33.7581 15 32.6416 15H29.0117ZM30.7412 10.5088V13.6191H32.6621C33.2044 13.6191 33.6283 13.4847 33.9336 13.2158C34.2389 12.9469 34.3916 12.5732 34.3916 12.0947C34.3916 11.0602 33.863 10.5316 32.8057 10.5088H30.7412ZM30.7412 9.2373H32.4365C32.9743 9.2373 33.3936 9.11654 33.6943 8.875C33.9997 8.62891 34.1523 8.28255 34.1523 7.83594C34.1523 7.34375 34.0111 6.98828 33.7285 6.76953C33.4505 6.55078 33.0153 6.44141 32.4229 6.44141H30.7412V9.2373ZM40.3389 10.0371L41.7471 7.60352H43.5928L41.3301 11.2471L43.668 15H41.8359L40.3594 12.4707L38.8896 15H37.0439L39.3818 11.2471L37.126 7.60352H38.958L40.3389 10.0371ZM44.1396 11.2334C44.1396 10.5088 44.2832 9.8571 44.5703 9.27832C44.8574 8.69499 45.2607 8.24837 45.7803 7.93848C46.2998 7.62402 46.8968 7.4668 47.5713 7.4668C48.5693 7.4668 49.3783 7.78809 49.998 8.43066C50.6224 9.07324 50.9596 9.92546 51.0098 10.9873L51.0166 11.377C51.0166 12.1061 50.8753 12.7578 50.5928 13.332C50.3148 13.9062 49.9137 14.3506 49.3896 14.665C48.8701 14.9795 48.2686 15.1367 47.585 15.1367C46.5413 15.1367 45.7051 14.7904 45.0762 14.0977C44.4518 13.4004 44.1396 12.473 44.1396 11.3154V11.2334ZM45.8008 11.377C45.8008 12.138 45.958 12.735 46.2725 13.168C46.5869 13.5964 47.0244 13.8105 47.585 13.8105C48.1455 13.8105 48.5807 13.5918 48.8906 13.1543C49.2051 12.7168 49.3623 12.0765 49.3623 11.2334C49.3623 10.486 49.2005 9.89355 48.877 9.45605C48.5579 9.01855 48.1227 8.7998 47.5713 8.7998C47.029 8.7998 46.5983 9.01628 46.2793 9.44922C45.9603 9.8776 45.8008 10.5202 45.8008 11.377ZM51.96 13.6738C52.4202 13.1589 52.7279 12.6712 52.8828 12.2109C53.0423 11.7461 53.138 11.1536 53.1699 10.4336L53.2656 7.60352H58.3994V13.6738H59.4248V17.2012H57.7705V15H53.0264V17.2012H51.3447L51.3516 13.6738H51.96ZM53.9082 13.6738H56.7451V9.03223H54.8789L54.8311 10.4473C54.7673 11.8053 54.4596 12.8809 53.9082 13.6738Z" fill="#323232"/>
</svg>
